HIERARCHY
ROOT Hips
{
	OFFSET 0.000000 0.000000 0.000000
	CHANNELS 6 Xposition Yposition Zposition Zrotation Yrotation Xrotation 
	JOINT LHipJoint
	{
		OFFSET 0.000000 0.000000 0.000000
		CHANNELS 3 Zrotation Yrotation Xrotation
		JOINT LeftUpLeg
		{
			OFFSET 1.363060 -1.794630 0.839290
			CHANNELS 3 Zrotation Yrotation Xrotation
			JOINT LeftLeg
			{
				OFFSET 2.448110 -6.726130 0.000000
				CHANNELS 3 Zrotation Yrotation Xrotation
				JOINT LeftFoot
				{
					OFFSET 2.562200 -7.039590 0.000000
					CHANNELS 3 Zrotation Yrotation Xrotation
					JOINT LeftToeBase
					{
						OFFSET 0.157640 -0.433110 2.322550
						CHANNELS 3 Zrotation Yrotation Xrotation
						End Site
						{
							OFFSET 0.000000 0.000000 0.000000
						}
					}
				}
			}
		}
	}
	JOINT RHipJoint
	{
		OFFSET 0.000000 0.000000 0.000000
		CHANNELS 3 Zrotation Yrotation Xrotation
		JOINT RightUpLeg
		{
			OFFSET -1.305520 -1.794630 0.839290
			CHANNELS 3 Zrotation Yrotation Xrotation
			JOINT RightLeg
			{
				OFFSET -2.542530 -6.985550 0.000000
				CHANNELS 3 Zrotation Yrotation Xrotation
				JOINT RightFoot
				{
					OFFSET -2.568260 -7.056230 0.000000
					CHANNELS 3 Zrotation Yrotation Xrotation
					JOINT RightToeBase
					{
						OFFSET -0.164730 -0.452590 2.363150
						CHANNELS 3 Zrotation Yrotation Xrotation
						End Site
						{
							OFFSET 0.000000 0.000000 0.000000
						}
					}
				}
			}
		}
	}
	JOINT LowerBack
	{
		OFFSET 0.000000 0.000000 0.000000
		CHANNELS 3 Zrotation Yrotation Xrotation
		JOINT Spine
		{
			OFFSET 0.028270 2.035590 -0.193380
			CHANNELS 3 Zrotation Yrotation Xrotation
			JOINT Spine1
			{
				OFFSET 0.056720 2.048850 -0.042750
				CHANNELS 3 Zrotation Yrotation Xrotation
				JOINT Neck
				{
					OFFSET 0.000000 0.000000 0.000000
					CHANNELS 3 Zrotation Yrotation Xrotation
					JOINT Neck1
					{
						OFFSET -0.054170 1.746240 0.172020
						CHANNELS 3 Zrotation Yrotation Xrotation
						JOINT Head
						{
							OFFSET 0.104070 1.761360 -0.123970
							CHANNELS 3 Zrotation Yrotation Xrotation
							End Site
							{
								OFFSET 0.000000 0.000000 0.000000
							}
						}
					}
				}
				JOINT LeftShoulder
				{
					OFFSET 0.000000 0.000000 0.000000
					CHANNELS 3 Zrotation Yrotation Xrotation
					JOINT LeftArm
					{
						OFFSET 3.362410 1.200890 -0.311210
						CHANNELS 3 Zrotation Yrotation Xrotation
						JOINT LeftForeArm
						{
							OFFSET 4.983000 -0.000000 -0.000000
							CHANNELS 3 Zrotation Yrotation Xrotation
							JOINT LeftHand
							{
								OFFSET 3.483560 -0.000000 -0.000000
								CHANNELS 3 Zrotation Yrotation Xrotation
								JOINT LeftFingerBase
								{
									OFFSET 0.000000 0.000000 0.000000
									CHANNELS 3 Zrotation Yrotation Xrotation
									JOINT LeftHandIndex1
									{
										OFFSET 0.715260 -0.000000 -0.000000
										CHANNELS 3 Zrotation Yrotation Xrotation
										End Site
										{
											OFFSET 0.000000 0.000000 0.000000
										}
									}
								}
								JOINT LThumb
								{
									OFFSET 0.000000 0.000000 0.000000
									CHANNELS 3 Zrotation Yrotation Xrotation
									End Site
									{
										OFFSET 0.000000 0.000000 0.000000
									}
								}
							}
						}
					}
				}
				JOINT RightShoulder
				{
					OFFSET 0.000000 0.000000 0.000000
					CHANNELS 3 Zrotation Yrotation Xrotation
					JOINT RightArm
					{
						OFFSET -3.136600 1.374050 -0.404650
						CHANNELS 3 Zrotation Yrotation Xrotation
						JOINT RightForeArm
						{
							OFFSET -5.241900 -0.000000 -0.000000
							CHANNELS 3 Zrotation Yrotation Xrotation
							JOINT RightHand
							{
								OFFSET -3.444170 -0.000000 -0.000000
								CHANNELS 3 Zrotation Yrotation Xrotation
								JOINT RightFingerBase
								{
									OFFSET 0.000000 0.000000 0.000000
									CHANNELS 3 Zrotation Yrotation Xrotation
									JOINT RightHandIndex1
									{
										OFFSET -0.622530 -0.000000 -0.000000
										CHANNELS 3 Zrotation Yrotation Xrotation
										End Site
										{
											OFFSET 0.000000 0.000000 0.000000
										}
									}
								}
								JOINT RThumb
								{
									OFFSET 0.000000 0.000000 0.000000
									CHANNELS 3 Zrotation Yrotation Xrotation
									End Site
									{
										OFFSET 0.000000 0.000000 0.000000
									}
								}
							}
						}
					}
				}
			}
		}
	}
}
MOTION
Frames: 9
Frame Time: 0.008333
24.930853 15.384749 4.293676 54.985386 -89.191789 -27.766492 -12.763556 3.372346 -1.257895 -0.238645 10.105730 5.380799 -1.064303 -0.188237 9.314212 0.926454 7.843872 1.616356 1.146400 0.000000 -83.817800 7.516349 0.398270 4.262797 2.684864 6.570935 -74.454067 0.584090 -4.392099 50.825042 -0.967742 -2.359598 -4.769346 -0.585100 -0.000001 -45.520500 12.818690 -5.265940 -1.199367 1.748138 -6.140479 -2.863372 -8.516129 -6.234619 1.683278 9.481688 -8.520956 -6.709105 -4.351609 -0.328953 0.108418 0.000000 0.000000 0.000000 0.373715 -0.656673 3.896765 -23.369853 -36.870870 17.255364 -0.969719 -74.982539 0.060301 -8.042125 -3.150639 0.255003 0.050765 0.437592 -0.000000 0.000000 0.000000 0.000000 0.000000 0.000000 0.000000 19.566456 -9.526593 2.101856 65.969277 -13.585799 -15.785751 3.847858 17.855281 0.021390 3.941679 12.496660 0.427212 0.071555 -0.076010 -0.000000 0.000000 0.000000 0.000000 0.000000 0.000000 0.000000 
24.678229 15.402509 4.259218 70.770621 -88.647540 -43.424136 -13.531945 3.408161 -1.125419 0.045680 9.985001 4.588052 -0.784913 0.001544 11.200587 0.987485 8.472774 4.296095 1.596999 -0.000000 -85.072600 6.945177 0.108933 4.149593 2.940303 6.637750 -74.066717 0.493047 -4.357276 51.956251 -1.093651 -2.810792 -5.646398 -0.572000 -0.000000 -45.001800 12.696966 -5.297979 -1.271593 1.716495 -6.174478 -2.905409 -8.544567 -6.277288 1.618317 9.495406 -7.999883 -6.634963 -4.432237 -0.334839 0.122576 0.000000 0.000000 0.000000 0.098066 -0.676399 4.026302 -23.488805 -35.759207 17.478282 -0.998705 -75.137485 0.059999 -8.058692 -3.103203 0.251346 0.040938 0.429781 -0.000000 0.000000 0.000000 0.000000 0.000000 0.000000 0.000000 19.855639 -9.015833 2.106888 65.579092 -12.747162 -15.594342 3.815205 17.718447 0.021013 3.758690 12.709580 0.414216 0.069465 -0.076922 -0.000000 0.000000 0.000000 0.000000 0.000000 0.000000 0.000000 
24.426325 15.427505 4.222431 81.693687 -88.449177 -54.201689 -14.087349 3.504107 -1.008729 0.306685 9.890629 3.609933 -0.532306 0.217952 13.323831 1.096594 9.146629 6.979857 2.080300 -0.000000 -85.181300 6.571480 0.018646 4.012564 3.319762 6.788767 -73.484271 0.440547 -4.296280 52.828195 -1.209337 -3.183100 -6.661959 -0.523200 -0.000000 -44.587600 12.753940 -5.218068 -1.290522 1.708243 -6.103834 -2.935449 -8.589517 -6.213119 1.545773 9.524316 -7.449426 -6.549748 -4.513601 -0.340577 0.139249 0.000000 0.000000 0.000000 -0.168107 -0.635517 4.141588 -23.781694 -34.639013 17.845548 -1.038432 -75.127821 0.059418 -8.081174 -3.063583 0.248191 0.030600 0.419653 -0.000000 0.000000 0.000000 0.000000 0.000000 0.000000 0.000000 20.155670 -8.428412 2.111867 65.198725 -11.846721 -15.326239 3.785201 17.587552 0.020794 3.531070 12.998751 0.397822 0.067875 -0.078381 -0.000000 0.000000 0.000000 0.000000 0.000000 0.000000 0.000000 
24.175837 15.459529 4.183083 89.004004 -88.384094 -61.372997 -14.464981 3.572184 -0.906628 0.521230 9.770148 2.467760 -0.294139 0.420107 15.707215 1.239766 9.826564 9.559276 2.579400 -0.000000 -83.985400 6.340622 -0.018805 3.876942 3.756631 6.910158 -72.745571 0.428789 -4.237309 53.458416 -1.313764 -3.462552 -7.788710 -0.440600 0.000001 -44.254100 12.908384 -5.104912 -1.292407 1.717404 -6.004539 -2.959542 -8.638349 -6.118143 1.474268 9.570661 -6.879117 -6.450253 -4.594531 -0.346213 0.159844 0.000000 0.000000 0.000000 -0.412962 -0.573328 4.251725 -24.237804 -33.538800 18.352599 -1.090903 -74.928607 0.058646 -8.114913 -3.031445 0.245841 0.019807 0.407545 -0.000000 0.000000 0.000000 0.000000 0.000000 0.000000 0.000000 20.471655 -7.811841 2.109868 64.831685 -10.888248 -14.997032 3.754062 17.472424 0.020587 3.251418 13.315414 0.374828 0.066557 -0.080154 0.000000 0.000000 0.000000 0.000000 0.000000 0.000000 0.000000 
23.927731 15.498235 4.140681 93.751787 -88.351306 -65.995171 -14.711194 3.588283 -0.816532 0.634048 9.602355 1.174091 -0.075838 0.592799 18.346495 1.405334 10.505580 11.902922 3.076801 -0.000000 -81.404799 6.208500 -0.049821 3.747971 4.186241 6.957513 -71.878065 0.450694 -4.183717 53.874228 -1.402266 -3.633252 -8.982799 -0.330700 -0.000001 -43.986200 13.056755 -4.985555 -1.287918 1.725525 -5.898700 -2.980782 -8.682268 -6.014855 1.402305 9.638833 -6.297883 -6.331587 -4.674495 -0.351812 0.186100 0.000000 0.000000 0.000000 -0.588880 -0.543156 4.354215 -24.903771 -32.399272 18.974232 -1.156312 -74.547390 0.057742 -8.177143 -3.001554 0.244295 0.009026 0.393290 -0.000000 0.000000 0.000000 0.000000 0.000000 0.000000 0.000000 20.809354 -7.188450 2.102283 64.479890 -9.868530 -14.614282 3.718576 17.367792 0.020325 2.904193 13.635570 0.342233 0.065460 -0.082241 0.000000 0.000000 0.000000 0.000000 0.000000 0.000000 0.000000 
23.682381 15.543505 4.096006 97.009969 -88.320502 -69.139037 -14.873470 3.551172 -0.738536 0.641392 9.410110 -0.283859 0.112240 0.736026 21.230808 1.580117 11.165139 13.886995 3.547000 -0.000000 -77.632400 6.136097 -0.087965 3.628349 4.592557 6.944251 -70.897146 0.499920 -4.128483 54.081696 -1.474191 -3.704988 -10.186916 -0.205600 0.000001 -43.782300 13.162163 -4.862376 -1.281611 1.725364 -5.787042 -2.998103 -8.718625 -5.903965 1.339323 9.723511 -5.711003 -6.204250 -4.750963 -0.357087 0.214990 0.000000 0.000000 0.000000 -0.741797 -0.488532 4.451416 -25.682187 -31.316036 19.701584 -1.237164 -73.953564 0.056656 -8.251517 -2.979616 0.243451 -0.001998 0.377381 -0.000000 0.000000 0.000000 0.000000 0.000000 0.000000 0.000000 21.159303 -6.562772 2.087134 64.143348 -8.764739 -14.243283 3.681099 17.257040 0.020000 2.549003 13.927813 0.306137 0.064384 -0.084646 0.000000 0.000000 0.000000 0.000000 0.000000 0.000000 0.000000 
23.440517 15.594998 4.049049 98.996691 -88.272000 -71.021922 -14.959985 3.465279 -0.677710 0.524142 9.201928 -1.898899 0.263042 0.855357 24.328998 1.751986 11.811132 15.417510 3.974700 0.000000 -72.959801 6.116006 -0.135367 3.521704 4.944533 6.873007 -69.822910 0.569332 -4.071148 54.095725 -1.529013 -3.688117 -11.351867 -0.076800 -0.000000 -43.647900 13.194152 -4.737176 -1.272968 1.712860 -5.669253 -3.012999 -8.735964 -5.786192 1.280694 9.810805 -5.128479 -6.068612 -4.820160 -0.361831 0.246617 0.000000 0.000000 0.000000 -0.851828 -0.443152 4.540642 -26.599406 -30.244383 20.502659 -1.333430 -73.157823 0.055405 -8.345651 -2.960677 0.243307 -0.012879 0.359874 0.000000 0.000000 0.000000 0.000000 0.000000 0.000000 0.000000 21.502562 -5.938018 2.073239 63.838424 -7.608251 -13.733624 3.629041 17.312693 0.019091 2.110358 13.824684 0.250535 0.063310 -0.087142 0.000000 0.000000 0.000000 0.000000 0.000000 0.000000 0.000000 
23.202277 15.652444 4.000629 99.902361 -88.211607 -71.831457 -14.985154 3.336647 -0.638225 0.298028 9.001432 -3.671175 0.377064 0.960218 27.601386 1.911458 12.445307 16.448058 4.346700 0.000000 -67.850000 6.136087 -0.197295 3.433559 5.241383 6.766399 -68.668635 0.654012 -4.009487 53.917702 -1.569746 -3.609748 -12.432026 0.045100 0.000000 -43.591099 13.162138 -4.614501 -1.265057 1.687165 -5.550919 -3.025767 -8.749830 -5.666797 1.227836 9.920713 -4.540790 -5.923546 -4.886951 -0.366394 0.281082 0.000000 0.000000 0.000000 -0.912659 -0.398741 4.620209 -27.627106 -29.174199 21.346561 -1.445344 -72.173157 0.054009 -8.456825 -2.946855 0.243863 -0.023700 0.341150 0.000000 0.000000 0.000000 0.000000 0.000000 0.000000 0.000000 21.856605 -5.319395 2.054101 63.532078 -6.311783 -13.430854 3.589148 17.166396 0.018640 1.801420 14.001545 0.215737 0.062148 -0.090323 0.000000 0.000000 0.000000 0.000000 0.000000 0.000000 0.000000 
22.967856 15.715632 3.951393 99.605981 -88.149416 -71.443938 -14.952716 3.169346 -0.623638 -0.024662 8.816358 -5.589055 0.462897 1.058091 30.990343 2.054739 13.086616 16.988334 4.663901 -0.000000 -62.806901 6.192416 -0.278696 3.368479 5.481377 6.641311 -67.446928 0.750255 -3.944123 53.547012 -1.600284 -3.499235 -13.394394 0.152800 0.000001 -43.614900 13.079132 -4.494826 -1.258716 1.653213 -5.432792 -3.037289 -8.752732 -5.547432 1.179357 10.035731 -3.949095 -5.772625 -4.948031 -0.370554 0.317351 0.000000 0.000000 0.000000 -0.948300 -0.350757 4.692792 -28.727685 -28.121470 22.211255 -1.572820 -71.004244 0.052457 -8.575593 -2.937446 0.244917 -0.034513 0.321613 0.000000 0.000000 0.000000 0.000000 0.000000 0.000000 0.000000 22.200007 -4.700137 2.035568 63.236128 -4.916662 -13.184414 3.549852 16.998014 0.018149 1.547466 14.116726 0.186037 0.060853 -0.093879 0.000000 0.000000 0.000000 0.000000 0.000000 0.000000 0.000000 
